<svg viewBox="0 0 100 100">
  <g>
    <path xmlns="http://www.w3.org/2000/svg"
      d="M84.1,57.1H30.7V31.7c3.9-1.1,6.7-4.6,6.7-8.8c0-5.1-4.1-9.2-9.2-9.2S19,17.8,19,22.9c0,4.2,2.8,7.7,6.7,8.8v25.4h-9.8  c-6,0-10.8,4.9-10.8,10.8v16.8c0,6,4.9,10.8,10.8,10.8h68.1c6,0,10.8-4.9,10.8-10.8V67.9C94.9,62,90,57.1,84.1,57.1z M24,22.9  c0-2.3,1.9-4.2,4.2-4.2c2.3,0,4.2,1.9,4.2,4.2c0,2.3-1.9,4.2-4.2,4.2C25.9,27.1,24,25.2,24,22.9z M89.9,84.8c0,3.2-2.6,5.8-5.8,5.8  H15.9c-3.2,0-5.8-2.6-5.8-5.8V67.9c0-3.2,2.6-5.8,5.8-5.8h68.1c3.2,0,5.8,2.6,5.8,5.8V84.8z M77.5,76.4c0,1.4-1.1,2.5-2.5,2.5H49.4  c-1.4,0-2.5-1.1-2.5-2.5s1.1-2.5,2.5-2.5H75C76.3,73.9,77.5,75,77.5,76.4z M31.4,76.4c0,1.6-1.3,2.9-2.9,2.9c-1.6,0-2.9-1.3-2.9-2.9  c0-1.6,1.3-2.9,2.9-2.9C30.1,73.5,31.4,74.8,31.4,76.4z M58,37.4c3-4.3,4.6-9.3,4.6-14.6c0-5.3-1.6-10.3-4.6-14.6  c-0.8-1.1-0.5-2.7,0.6-3.5C59.7,4,61.2,4.3,62,5.4c3.6,5.1,5.5,11.1,5.5,17.5c0,6.3-1.9,12.4-5.5,17.5c-0.5,0.7-1.3,1.1-2,1.1  c-0.5,0-1-0.1-1.4-0.5C57.4,40.1,57.2,38.6,58,37.4z M45.1,27.7c1-1.4,1.5-3.1,1.5-4.8s-0.5-3.4-1.5-4.8c-0.8-1.1-0.5-2.7,0.6-3.5  c1.1-0.8,2.7-0.5,3.5,0.6c1.6,2.3,2.5,4.9,2.5,7.7s-0.8,5.5-2.5,7.7c-0.5,0.7-1.3,1.1-2,1.1c-0.5,0-1-0.1-1.4-0.5  C44.6,30.4,44.3,28.8,45.1,27.7z">
    </path>
  </g>
</svg>
