<svg xmlns="http://www.w3.org/2000/svg" aria-hidden="true" width="32" height="32" viewBox="0 0 100 100">
  <path fill="#91c0ff" xmlns="http://www.w3.org/2000/svg"
    d="M84.1 57.1H30.7V31.7c3.9-1.1 6.7-4.6 6.7-8.8 0-5.1-4.1-9.2-9.2-9.2S19 17.8 19 22.9c0 4.2 2.8 7.7 6.7 8.8v25.4h-9.8c-6 0-10.8 4.9-10.8 10.8v16.8c0 6 4.9 10.8 10.8 10.8H84c6 0 10.8-4.9 10.8-10.8V67.9c.1-5.9-4.8-10.8-10.7-10.8zM24 22.9c0-2.3 1.9-4.2 4.2-4.2 2.3 0 4.2 1.9 4.2 4.2 0 2.3-1.9 4.2-4.2 4.2-2.3 0-4.2-1.9-4.2-4.2zm65.9 61.9c0 3.2-2.6 5.8-5.8 5.8H15.9c-3.2 0-5.8-2.6-5.8-5.8V67.9c0-3.2 2.6-5.8 5.8-5.8H84c3.2 0 5.8 2.6 5.8 5.8v16.9zm-12.4-8.4c0 1.4-1.1 2.5-2.5 2.5H49.4c-1.4 0-2.5-1.1-2.5-2.5s1.1-2.5 2.5-2.5H75c1.3 0 2.5 1.1 2.5 2.5zm-46.1 0c0 1.6-1.3 2.9-2.9 2.9-1.6 0-2.9-1.3-2.9-2.9 0-1.6 1.3-2.9 2.9-2.9 1.6 0 2.9 1.3 2.9 2.9zm26.6-39c3-4.3 4.6-9.3 4.6-14.6 0-5.3-1.6-10.3-4.6-14.6-.8-1.1-.5-2.7.6-3.5 1.1-.7 2.6-.4 3.4.7 3.6 5.1 5.5 11.1 5.5 17.5 0 6.3-1.9 12.4-5.5 17.5-.5.7-1.3 1.1-2 1.1-.5 0-1-.1-1.4-.5-1.2-.9-1.4-2.4-.6-3.6zm-12.9-9.7c1-1.4 1.5-3.1 1.5-4.8s-.5-3.4-1.5-4.8c-.8-1.1-.5-2.7.6-3.5 1.1-.8 2.7-.5 3.5.6 1.6 2.3 2.5 4.9 2.5 7.7s-.8 5.5-2.5 7.7c-.5.7-1.3 1.1-2 1.1-.5 0-1-.1-1.4-.5-1.2-.8-1.5-2.4-.7-3.5z" />
</svg>
